<svg xmlns="http://www.w3.org/2000/svg" version="1.1" xmlns:xlink="http://www.w3.org/1999/xlink" xmlns:svgjs="http://svgjs.dev/svgjs" width="900" height="1400" preserveAspectRatio="none" viewBox="0 0 900 1400"><g mask="url(&quot;#SvgjsMask3821&quot;)" fill="none"><rect width="900" height="1400" x="0" y="0" fill="rgba(41, 41, 41, 1)"></rect><path d="M0,431.735C82.499,440.361,165.531,410.97,234.436,364.79C302.583,319.118,351.949,250.849,383.121,174.966C413.508,100.994,415.27,20.955,408.408,-58.72C401.197,-142.448,398.789,-234.377,342.492,-296.771C286.449,-358.883,194.684,-366.501,113.283,-385.805C35.992,-404.134,-43.991,-431.566,-119.295,-406.282C-193.624,-381.326,-242.059,-313.253,-289.264,-250.649C-333.752,-191.648,-385.918,-129.081,-384.01,-55.212C-382.16,16.42,-310.438,63.011,-279.495,127.641C-249.34,190.623,-252.169,267.443,-204.916,318.855C-151.054,377.457,-79.163,423.458,0,431.735" fill="#212121"></path><path d="M900 2023.738C1013.963 2010.482 1107.067 1927.2930000000001 1184.41 1842.55 1249.6399999999999 1771.079 1263.937 1672.5430000000001 1301.8 1583.496 1338.449 1497.305 1418.156 1420.11 1403.356 1327.628 1388.5720000000001 1235.249 1288.208 1187.406 1227.078 1116.586 1165.8020000000001 1045.596 1124.055 959.085 1043.622 910.8679999999999 947.941 853.509 833.985 779.988 729.133 818.08 623.501 856.456 617.8779999999999 1006.832 544.6949999999999 1092.126 472.046 1176.799 341.419 1209.323 303.437 1314.227 263.68399999999997 1424.02 293.384 1548.671 340.749 1655.401 388.414 1762.809 471.496 1849.4279999999999 569.6320000000001 1914.063 668.538 1979.205 782.362 2037.422 900 2023.738" fill="#313131"></path></g><defs><mask id="SvgjsMask3821"><rect width="900" height="1400" fill="#ffffff"></rect></mask></defs></svg>