<svg xmlns="http://www.w3.org/2000/svg" viewBox="0 0 543.82 134.14"><defs><style>.cls-1{fill:#fff;}.cls-2{fill:#ffcb05;}</style></defs><g id="Layer_2" data-name="Layer 2"><g id="Layer_1-2" data-name="Layer 1"><path class="cls-1" d="M61.35,35.54h-.09V63.17h.09a21.68,21.68,0,0,1,0,43.36h-.09v27.62h.09a49.3,49.3,0,1,0,0-98.6Z"/><path class="cls-2" d="M49.3,98.6h.09V71H49.3a21.68,21.68,0,0,1,0-43.36h.09V0H49.3a49.3,49.3,0,0,0,0,98.6Z"/><path class="cls-1" d="M194.14,35.74h15.93V98.5H194.14Z"/><path class="cls-1" d="M312.77,35.33c18.06,0,30.36,13.55,30.36,33.37v3.51h-45c1,7.66,7.15,14.05,17.44,14.05,5.64,0,12.29-2.25,16.18-6l7,10.29c-6,5.52-15.56,8.41-25,8.41-18.44,0-32.36-12.42-32.36-31.87C281.41,49.51,294.33,35.33,312.77,35.33Zm-14.93,26.1H327.7C327.32,55.66,323.31,48,312.77,48,302.86,48,298.59,55.4,297.84,61.43Z"/><path class="cls-1" d="M394.73,60.8c0-8.41-4.4-11.29-11.17-11.29a17.26,17.26,0,0,0-13.8,7.15V98.6H353.83V35.7h15.93v9A27.75,27.75,0,0,1,391,35.33c13.3,0,19.7,7.53,19.7,19.32V98.6H394.73Z"/><path class="cls-1" d="M513.46,35.33c18.06,0,30.36,13.55,30.36,33.37v3.51h-45c1,7.66,7.15,14.05,17.44,14.05,5.64,0,12.29-2.25,16.18-6l7,10.29c-6,5.52-15.56,8.41-25,8.41-18.44,0-32.36-12.42-32.36-31.87C482.1,49.51,495,35.33,513.46,35.33Zm-14.93,26.1h29.86C528,55.66,524,48,513.46,48,503.55,48,499.28,55.4,498.53,61.43Z"/><path class="cls-1" d="M137.06,80.88c3.11,1.65,12,5.44,19.48,5.44,6.08,0,9.44-1.67,9.44-5.44,0-4.26-4-6.12-10.9-7.5-10.42-2-24.55-5.59-24.55-20,0-10.16,6.87-17.79,26-17.79a46,46,0,0,1,24.13,6.93l-6.43,10.8a31.22,31.22,0,0,0-17.67-5.63c-6.11,0-9.51,2.13-9.5,5.64,0,3.89,3.49,5.25,9.43,6.13,10.49,1.56,26,6.4,26,21.46,0,11-9.2,17.71-26,17.71-10.53,0-20.91-3.17-26-6.58Z"/><path class="cls-1" d="M227.16,80.88c3.1,1.65,12,5.44,19.48,5.44,6.07,0,9.43-1.67,9.43-5.44,0-4.26-4-6.12-10.9-7.5-10.41-2-24.55-5.59-24.55-20,0-10.16,6.87-17.79,26-17.79a45.93,45.93,0,0,1,24.13,6.93l-6.43,10.8a31.2,31.2,0,0,0-17.67-5.63c-6.11,0-9.51,2.13-9.5,5.64,0,3.89,3.49,5.25,9.44,6.13,10.48,1.56,26,6.4,26,21.46,0,11-9.19,17.71-26,17.71-10.54,0-20.91-3.17-26-6.58Z"/><path class="cls-1" d="M427.84,80.88c3.11,1.65,12,5.44,19.49,5.44,6.07,0,9.43-1.67,9.43-5.44,0-4.26-4-6.12-10.9-7.5-10.41-2-24.55-5.59-24.55-20,0-10.16,6.87-17.79,26-17.79a45.93,45.93,0,0,1,24.13,6.93l-6.43,10.8a31.2,31.2,0,0,0-17.67-5.63c-6.11,0-9.51,2.13-9.5,5.64,0,3.89,3.49,5.25,9.43,6.13,10.49,1.56,26,6.4,26,21.46,0,11-9.19,17.71-26,17.71-10.53,0-20.91-3.17-26-6.58Z"/><circle class="cls-2" cx="202.1" cy="19.65" r="7.97"/></g></g></svg>